/* XPM */
static char *out[] = {
/* columns rows colors chars-per-pixel */
"64 64 9 1 ",
"  c #2C2C2C",
". c gray22",
"X c #483818",
"o c #6C4824",
"O c #484848",
"+ c gray33",
"@ c #80502C",
"# c #885830",
"$ c #9C6038",
/* pixels */
"O+O@@#$$$$$$$$$$$$$$$$$$$$$$$#@@O+O@@#$$$$$$$$$$$$$$$$$$$$$$$#@@",
"O+Oo$$$$$$$$$$$$####$#$#$#$#$#$oO+Oo$$$$$$$$$$$$####$#$#$#$#$#$o",
"O+Oo$$#$$$##$########$#$#$###$#oO+Oo$$#$$$##$########$#$#$###$#o",
"O+Oo##$##$$###@#####$#$#$####@#oO+Oo##$##$$###@#####$#$#$####@#o",
"O+Oo#$####$##@#@$##$###$#$#$@#@oO+Oo#$####$##@#@$##$###$#$#$@#@o",
"O+Oo#$####$##@#@$##$###$#$#$@#@oO+Oo#$####$##@#@$##$###$#$#$@#@o",
"O+Oo##$#####@#@$#$#@####@#$@#@@oO+Oo##$#####@#@$#$#@####@#$@#@@o",
"O+Oo###$###@#@#@$@$@@#@#@@@@@@#oO+Oo###$###@#@#@$@$@@#@#@@@@@@#o",
"O+Oo##@#@@@@@#@#@@@@@@#@$@@##@@oO+Oo##@#@@@@@#@#@@@@@@#@$@@##@@o",
"O+Oo@@#@@@@@@@#@@@@#@#@@@@@@@@@oO+Oo@@#@@@@@@@#@@@@#@#@@@@@@@@@o",
"O+Oo@o@@@o@@@@@@@@@@@@@@@@@o@@@oO+Oo@o@@@o@@@@@@@@@@@@@@@@@o@@@o",
"O+Ooooo@o@o@o@@o@@o@o@o@o@o@o@@oO+Ooooo@o@o@o@@o@@o@o@o@o@o@o@@o",
"O+Oo@o@o@@@o@oo@@@@o@o@o@o@o@oooO+Oo@o@o@@@o@oo@@@@o@o@o@o@o@ooo",
"O+OXXXXXXXXXXXXXXXXXXXXXXXXXXXXXO+OXXXXXXXXXXXXXXXXXXXXXXXXXXXXX",
"OO.                             .O.                            .",
"OOOOOOOOOOOOOOOOOOOOOOOOOOOOOOOOOOOOOOOOOOOOOOOOOOOOOOOOOOOOOOOO",
"++++++++++++++++++++++++++++++++++++++++++++++++++++++++++++++++",
"$$$$$$$$$$$$#@@O+O@@#$$$$$$$$$$$$$$$$$$$$$$$#@@O+O@@#$$$$$$$$$$$",
"###$#$#$#$#$#$oO+Oo$$$$$$$$$$$$####$#$#$#$#$#$oO+Oo$$$$$$$$$$###",
"####$#$#$###$#oO+Oo$$#$$$##$########$#$#$###$#oO+Oo$$#$$$#######",
"###$#$#$####@#oO+Oo##$##$$###@#####$#$#$####@#oO+Oo##$##$$#@####",
"$#@####@#$@#@@oO+Oo##$#####@#@$#$#@####@#$@#@@oO+Oo##$#####@$#$$",
"@$@@#@#@@@@@@#oO+Oo###$###@#@#@$@$@@#@#@@@@@@#oO+Oo###$###@#@$@@",
"##$###$#$#$@#@oO+Oo#$####$##@#@$##$###$#$#$@#@oO+Oo#$####$##@$##",
"$#@####@#$@#@@oO+Oo##$#####@#@$#$#@####@#$@#@@oO+Oo##$#####@$#$$",
"@$@@#@#@@@@@@#oO+Oo###$###@#@#@$@$@@#@#@@@@@@#oO+Oo###$###@#@$@@",
"@@@@@#@$@@##@@oO+Oo##@#@@@@@#@#@@@@@@#@$@@##@@oO+Oo##@#@@@@@#@@@",
"@@#@#@@@@@@@@@oO+Oo@@#@@@@@@@#@@@@#@#@@@@@@@@@oO+Oo@@#@@@@@#@@@@",
"@@@@@@@@@@o@@@oO+Oo@o@@@o@@@@@@@@@@@@@@@@@o@@@oO+Oo@o@@@o@@@@@@@",
"@o@o@o@o@o@o@@oO+Ooooo@o@o@o@@o@@o@o@o@o@o@o@@oO+Ooooo@o@o@@o@@@",
"@@o@o@o@o@o@oooO+Oo@o@o@@@o@oo@@@@o@o@o@o@o@oooO+Oo@o@o@@@oo@@@@",
"XXXXXXXXXXXXXXXO+OXXXXXXXXXXXXXXXXXXXXXXXXXXXXXO+OXXXXXXXXXXXXXX",
"                                                                ",
"OOOOOOOOOOOOOOOOOOOOOOOOOOOOOOOOOOOOOOOOOOOOOOOOOOOOOOOOOOOOOOOO",
"++++++++++++++++++++++++++++++++O+O+++++++++++++++++++++++++++++",
"O+O@@#$$$$$$$$$$$$$$$$$$$$$$$#@@O+O@@#$$$$$$$$$$$$$$$$$$$$$$$#@@",
"O+Oo$$$$$$$$$$$$####$#$#$#$#$#$oO+Oo$$$$$$$$$$$$####$#$#$#$#$#$o",
"O+Oo$$#$$$##$########$#$#$###$#oO+Oo$$#$$$##$########$#$#$###$#o",
"O+Oo##$##$$###@#####$#$#$####@#oO+Oo##$##$$###@#####$#$#$####@#o",
"O+Oo#$####$##@#@$##$###$#$#$@#@oO+Oo#$####$##@#@$##$###$#$#$@#@o",
"O+Oo##$#####@#@$#$#@####@#$@#@@oO+Oo##$#####@#@$#$#@####@#$@#@@o",
"O+Oo###$###@#@#@$@$@@#@#@@@@@@#oO+Oo###$###@#@#@$@$@@#@#@@@@@@#o",
"O+Oo##@#@@@@@#@#@@@@@@#@$@@##@@oO+Oo##@#@@@@@#@#@@@@@@#@$@@##@@o",
"O+Oo@@#@@@@@@@#@@@@#@#@@@@@@@@@oO+Oo@@#@@@@@@@#@@@@#@#@@@@@@@@@o",
"O+Oo@o@@@o@@@@@@@@@@@@@@@@@o@@@oO+Oo@o@@@o@@@@@@@@@@@@@@@@@o@@@o",
"O+Ooooo@o@o@o@@o@@o@o@o@o@o@o@@oO+Ooooo@o@o@o@@o@@o@o@o@o@o@o@@o",
"O+Oo@o@o@@@o@oo@@@@o@o@o@o@o@oooO+Oo@o@o@@@o@oo@@@@o@o@o@o@o@ooo",
"O+OXXXXXXXXXXXXXXXXXXXXXXXXXXXXXO+OXXXXXXXXXXXXXXXXXXXXXXXXXXXXX",
"O+O.                           ..O..                           .",
"OOOOOOOOOOOOOOOOOOOOOOOOOOOOOOOOOOOOOOOOOOOOOOOOOOOOOOOOOOOOOOOO",
"++++++++++++++++++++++++++++++++++++++++++++++++++++++++++++++++",
"$$$$$$$$$$$$#@@O+O@@#$$$$$$$$$$$$$$$$$$$$$$$#@@O+O@@#$$$$$$$$$$$",
"###$#$$$#$#$#$oO+Oo$$$$$$$$$$$$####$#$#$#$#$#$oO+Oo$$$$$$$$$$###",
"####$#$#$###$#oO+Oo$$#$$$##$########$#$#$###$#oO+Oo$$#$$$#######",
"###$#$#$####@#oO+Oo##$##$$###@#####$#$#$####@#oO+Oo##$##$$#@####",
"##$###$#$#$@#@oO+Oo#$####$##@#@$##$###$#$#$@#@oO+Oo#$####$##@$##",
"$#@####@#$@#@@oO+Oo##$#####@#@$#$#@####@#$@#@@oO+Oo##$#####@$#$$",
"@$@@#@#@@@@@@#oO+Oo###$###@#@#@$@$@@#@#@@@@@@#oO+Oo###$###@#@$@@",
"@@@@@#@$@@##@@oO+Oo##@#@@@@@#@#@@@@@@#@$@@##@@oO+Oo##@#@@@@@#@@@",
"@@#@#@@@@@@@@@oO+Oo@@#@@@@@@@#@@@@#@#@@@@@@@@@oO+Oo@@#@@@@@#@@@@",
"@@@@@@@@@@o@@@oO+Oo@o@@@o@@@@@@@@@@@@@@@@@o@@@oO+Oo@o@@@o@@@@@@@",
"@o@o@o@o@o@o@@oO+Ooooo@o@o@o@@o@@o@o@o@o@o@o@@oO+Ooooo@o@o@@o@@@",
"@@o@o@o@o@o@oooO+Oo@o@o@@@o@oo@@@@o@o@o@o@o@oooO+Oo@o@o@@@oo@@@@",
"XXXXXXXXXXXXXXXO+OXXXXXXXXXXXXXXXXXXXXXXXXXXXXXO+OXXXXXXXXXXXXXX"
};
